<mxfile host="app.diagrams.net" agent="Mozilla/5.0 (Windows NT 10.0; Win64; x64) AppleWebKit/537.36 (KHTML, like Gecko) Chrome/128.0.0.0 Safari/537.36" version="24.7.13">
  <diagram name="第 1 页" id="CM5frEGZMOGYdJdPdgxb">
    <mxGraphModel dx="1434" dy="746" grid="1" gridSize="10" guides="1" tooltips="1" connect="1" arrows="1" fold="1" page="1" pageScale="1" pageWidth="827" pageHeight="1169" background="#FFE599" math="0" shadow="0">
      <root>
        <mxCell id="0" />
        <mxCell id="1" parent="0" />
        <mxCell id="ttmQ-iRGi5GbIsY0zkrh-1" value="" style="edgeStyle=orthogonalEdgeStyle;rounded=0;orthogonalLoop=1;jettySize=auto;html=1;curved=0;" parent="1" target="MIKHkH5czW7Q3cuvCCsl-2" edge="1">
          <mxGeometry relative="1" as="geometry">
            <mxPoint x="432" y="124" as="sourcePoint" />
          </mxGeometry>
        </mxCell>
        <mxCell id="RSiTvYrEAQizDabYgRL6-1" value="" style="triangle;whiteSpace=wrap;html=1;rotation=90;fillColor=#fff2cc;strokeColor=#d6b656;" parent="1" vertex="1">
          <mxGeometry x="401.5" y="32.5" width="61" height="130" as="geometry" />
        </mxCell>
        <mxCell id="RSiTvYrEAQizDabYgRL6-2" value="&lt;font style=&quot;font-size: 14px;&quot;&gt;&lt;b&gt;Dom&lt;/b&gt;&lt;/font&gt;&lt;div style=&quot;font-size: 14px;&quot;&gt;&lt;br&gt;&lt;/div&gt;" style="text;html=1;align=center;verticalAlign=middle;whiteSpace=wrap;rounded=0;" parent="1" vertex="1">
          <mxGeometry x="403" y="82.5" width="60" height="30" as="geometry" />
        </mxCell>
        <mxCell id="RSiTvYrEAQizDabYgRL6-4" value="" style="shape=document;whiteSpace=wrap;html=1;boundedLbl=1;fillColor=#f8cecc;strokeColor=#B80B3F;" parent="1" vertex="1">
          <mxGeometry x="29" y="204" width="100" height="70" as="geometry" />
        </mxCell>
        <mxCell id="RSiTvYrEAQizDabYgRL6-5" value="&lt;b&gt;HTML&lt;/b&gt;" style="text;html=1;align=center;verticalAlign=middle;whiteSpace=wrap;rounded=0;" parent="1" vertex="1">
          <mxGeometry x="39" y="219" width="80" height="30" as="geometry" />
        </mxCell>
        <mxCell id="RSiTvYrEAQizDabYgRL6-6" value="&lt;b style=&quot;font-size: 14px;&quot;&gt;&lt;font style=&quot;font-size: 14px;&quot;&gt;HTML&lt;/font&gt;&lt;/b&gt;&lt;div style=&quot;font-size: 14px;&quot;&gt;&lt;b style=&quot;&quot;&gt;&lt;font style=&quot;font-size: 14px;&quot;&gt;Parser&lt;/font&gt;&lt;/b&gt;&lt;/div&gt;" style="rounded=0;whiteSpace=wrap;html=1;fillColor=#dae8fc;strokeColor=#0000FF;" parent="1" vertex="1">
          <mxGeometry x="189" y="204" width="100" height="60" as="geometry" />
        </mxCell>
        <mxCell id="RSiTvYrEAQizDabYgRL6-9" value="" style="endArrow=classic;html=1;rounded=0;entryX=0;entryY=0.5;entryDx=0;entryDy=0;exitX=1.004;exitY=0.423;exitDx=0;exitDy=0;exitPerimeter=0;" parent="1" edge="1">
          <mxGeometry width="50" height="50" relative="1" as="geometry">
            <mxPoint x="129.43999999999994" y="238.8" as="sourcePoint" />
            <mxPoint x="189" y="239.19" as="targetPoint" />
          </mxGeometry>
        </mxCell>
        <mxCell id="MIKHkH5czW7Q3cuvCCsl-1" value="" style="endArrow=classic;html=1;rounded=0;" parent="1" edge="1">
          <mxGeometry width="50" height="50" relative="1" as="geometry">
            <mxPoint x="289" y="238.76" as="sourcePoint" />
            <mxPoint x="369" y="239" as="targetPoint" />
          </mxGeometry>
        </mxCell>
        <mxCell id="MIKHkH5czW7Q3cuvCCsl-2" value="&lt;font style=&quot;font-size: 14px;&quot;&gt;&lt;b&gt;&amp;nbsp; Dom&amp;nbsp;&lt;/b&gt;&lt;/font&gt;&lt;div&gt;&lt;span style=&quot;font-size: 14px; background-color: initial;&quot;&gt;&lt;b&gt;Tree&lt;/b&gt;&lt;/span&gt;&lt;/div&gt;" style="shape=parallelogram;perimeter=parallelogramPerimeter;whiteSpace=wrap;html=1;fixedSize=1;fillColor=#d5e8d4;strokeColor=#1800B3;" parent="1" vertex="1">
          <mxGeometry x="359" y="204" width="146" height="60" as="geometry" />
        </mxCell>
        <mxCell id="ttmQ-iRGi5GbIsY0zkrh-2" value="" style="endArrow=classic;html=1;rounded=0;" parent="1" edge="1">
          <mxGeometry width="50" height="50" relative="1" as="geometry">
            <mxPoint x="431.58" y="264" as="sourcePoint" />
            <mxPoint x="431.58" y="334" as="targetPoint" />
          </mxGeometry>
        </mxCell>
        <mxCell id="ttmQ-iRGi5GbIsY0zkrh-3" value="&lt;font style=&quot;font-size: 14px;&quot;&gt;&lt;b&gt;Attachment&lt;/b&gt;&lt;/font&gt;" style="rounded=0;whiteSpace=wrap;html=1;fillColor=#dae8fc;strokeColor=#007FFF;" parent="1" vertex="1">
          <mxGeometry x="363" y="334" width="126" height="60" as="geometry" />
        </mxCell>
        <mxCell id="ttmQ-iRGi5GbIsY0zkrh-4" value="" style="endArrow=classic;html=1;rounded=0;" parent="1" edge="1">
          <mxGeometry width="50" height="50" relative="1" as="geometry">
            <mxPoint x="431.58" y="454" as="sourcePoint" />
            <mxPoint x="431.58" y="394" as="targetPoint" />
          </mxGeometry>
        </mxCell>
        <mxCell id="ttmQ-iRGi5GbIsY0zkrh-5" value="&lt;font style=&quot;font-size: 14px;&quot;&gt;&lt;b&gt;Style&lt;/b&gt;&lt;/font&gt;&lt;div style=&quot;font-size: 14px;&quot;&gt;&lt;font style=&quot;font-size: 14px;&quot;&gt;&lt;b&gt;Rules&lt;/b&gt;&lt;/font&gt;&lt;/div&gt;" style="shape=parallelogram;perimeter=parallelogramPerimeter;whiteSpace=wrap;html=1;fixedSize=1;fillColor=#d5e8d4;strokeColor=#60854C;" parent="1" vertex="1">
          <mxGeometry x="359" y="454" width="130" height="60" as="geometry" />
        </mxCell>
        <mxCell id="ttmQ-iRGi5GbIsY0zkrh-6" value="" style="endArrow=classic;html=1;rounded=0;entryX=0;entryY=0.5;entryDx=0;entryDy=0;" parent="1" target="ttmQ-iRGi5GbIsY0zkrh-5" edge="1">
          <mxGeometry width="50" height="50" relative="1" as="geometry">
            <mxPoint x="289" y="484" as="sourcePoint" />
            <mxPoint x="379" y="474" as="targetPoint" />
          </mxGeometry>
        </mxCell>
        <mxCell id="ttmQ-iRGi5GbIsY0zkrh-7" value="&lt;font style=&quot;font-size: 14px;&quot;&gt;&lt;b&gt;CSS&lt;/b&gt;&lt;/font&gt;&lt;div style=&quot;font-size: 14px;&quot;&gt;&lt;font style=&quot;font-size: 14px;&quot;&gt;&lt;b&gt;Parser&lt;/b&gt;&lt;/font&gt;&lt;/div&gt;" style="rounded=0;whiteSpace=wrap;html=1;fillColor=#dae8fc;strokeColor=#0000FF;" parent="1" vertex="1">
          <mxGeometry x="189" y="454" width="100" height="60" as="geometry" />
        </mxCell>
        <mxCell id="ttmQ-iRGi5GbIsY0zkrh-22" value="" style="edgeStyle=orthogonalEdgeStyle;rounded=0;orthogonalLoop=1;jettySize=auto;html=1;" parent="1" source="ttmQ-iRGi5GbIsY0zkrh-10" target="ttmQ-iRGi5GbIsY0zkrh-7" edge="1">
          <mxGeometry relative="1" as="geometry">
            <Array as="points">
              <mxPoint x="149" y="484" />
              <mxPoint x="149" y="484" />
            </Array>
          </mxGeometry>
        </mxCell>
        <mxCell id="ttmQ-iRGi5GbIsY0zkrh-13" value="" style="endArrow=classic;html=1;rounded=0;" parent="1" edge="1">
          <mxGeometry width="50" height="50" relative="1" as="geometry">
            <mxPoint x="489" y="364" as="sourcePoint" />
            <mxPoint x="559" y="364" as="targetPoint" />
          </mxGeometry>
        </mxCell>
        <mxCell id="ttmQ-iRGi5GbIsY0zkrh-17" value="" style="edgeStyle=orthogonalEdgeStyle;rounded=0;orthogonalLoop=1;jettySize=auto;html=1;" parent="1" source="ttmQ-iRGi5GbIsY0zkrh-14" target="ttmQ-iRGi5GbIsY0zkrh-16" edge="1">
          <mxGeometry relative="1" as="geometry">
            <Array as="points">
              <mxPoint x="610" y="320" />
              <mxPoint x="610" y="320" />
            </Array>
          </mxGeometry>
        </mxCell>
        <mxCell id="ttmQ-iRGi5GbIsY0zkrh-19" value="" style="edgeStyle=orthogonalEdgeStyle;rounded=0;orthogonalLoop=1;jettySize=auto;html=1;" parent="1" source="ttmQ-iRGi5GbIsY0zkrh-14" target="ttmQ-iRGi5GbIsY0zkrh-18" edge="1">
          <mxGeometry relative="1" as="geometry" />
        </mxCell>
        <mxCell id="ttmQ-iRGi5GbIsY0zkrh-14" value="&lt;b style=&quot;font-size: 14px;&quot;&gt;&lt;font style=&quot;font-size: 14px;&quot;&gt;Render&lt;/font&gt;&lt;/b&gt;&lt;div style=&quot;font-size: 14px;&quot;&gt;&lt;b style=&quot;&quot;&gt;&lt;font style=&quot;font-size: 14px;&quot;&gt;Tree&lt;/font&gt;&lt;/b&gt;&lt;/div&gt;" style="shape=parallelogram;perimeter=parallelogramPerimeter;whiteSpace=wrap;html=1;fixedSize=1;fillColor=#d5e8d4;strokeColor=#82b366;" parent="1" vertex="1">
          <mxGeometry x="549" y="334" width="120" height="60" as="geometry" />
        </mxCell>
        <mxCell id="ttmQ-iRGi5GbIsY0zkrh-16" value="&lt;b&gt;&lt;font style=&quot;font-size: 14px;&quot;&gt;Layout&lt;/font&gt;&lt;/b&gt;" style="whiteSpace=wrap;html=1;fillColor=#cce5ff;strokeColor=#141F3D;" parent="1" vertex="1">
          <mxGeometry x="549" y="204" width="131" height="60" as="geometry" />
        </mxCell>
        <mxCell id="ttmQ-iRGi5GbIsY0zkrh-21" value="" style="edgeStyle=orthogonalEdgeStyle;rounded=0;orthogonalLoop=1;jettySize=auto;html=1;" parent="1" source="ttmQ-iRGi5GbIsY0zkrh-18" target="ttmQ-iRGi5GbIsY0zkrh-20" edge="1">
          <mxGeometry relative="1" as="geometry">
            <Array as="points">
              <mxPoint x="755" y="424" />
              <mxPoint x="755" y="424" />
            </Array>
          </mxGeometry>
        </mxCell>
        <mxCell id="ttmQ-iRGi5GbIsY0zkrh-18" value="&lt;b&gt;&lt;font style=&quot;font-size: 14px;&quot;&gt;Painting&lt;/font&gt;&lt;/b&gt;" style="whiteSpace=wrap;html=1;fillColor=#f8cecc;strokeColor=#b85450;" parent="1" vertex="1">
          <mxGeometry x="699" y="334" width="111" height="60" as="geometry" />
        </mxCell>
        <mxCell id="ttmQ-iRGi5GbIsY0zkrh-20" value="&lt;font style=&quot;font-size: 14px;&quot;&gt;&lt;b&gt;Display&lt;/b&gt;&lt;/font&gt;" style="shape=hexagon;perimeter=hexagonPerimeter2;whiteSpace=wrap;html=1;fixedSize=1;fillColor=#fff2cc;strokeColor=#d6b656;" parent="1" vertex="1">
          <mxGeometry x="689" y="454" width="120" height="60" as="geometry" />
        </mxCell>
        <mxCell id="ttmQ-iRGi5GbIsY0zkrh-23" value="" style="group" parent="1" vertex="1" connectable="0">
          <mxGeometry x="19" y="454" width="120" height="90" as="geometry" />
        </mxCell>
        <mxCell id="ttmQ-iRGi5GbIsY0zkrh-10" value="" style="shape=document;whiteSpace=wrap;html=1;boundedLbl=1;fillColor=#ffff88;strokeColor=#36393d;" parent="ttmQ-iRGi5GbIsY0zkrh-23" vertex="1">
          <mxGeometry x="20" width="100" height="70" as="geometry" />
        </mxCell>
        <mxCell id="ttmQ-iRGi5GbIsY0zkrh-11" value="" style="shape=document;whiteSpace=wrap;html=1;boundedLbl=1;fillColor=#ffff88;strokeColor=#36393d;" parent="ttmQ-iRGi5GbIsY0zkrh-23" vertex="1">
          <mxGeometry x="10" y="10" width="100" height="70" as="geometry" />
        </mxCell>
        <mxCell id="ttmQ-iRGi5GbIsY0zkrh-12" value="&lt;font style=&quot;font-size: 14px;&quot;&gt;&lt;b&gt;Style&lt;/b&gt;&lt;/font&gt;&lt;div style=&quot;font-size: 14px;&quot;&gt;&lt;font style=&quot;font-size: 14px;&quot;&gt;&lt;b&gt;Sheets&lt;/b&gt;&lt;/font&gt;&lt;/div&gt;" style="shape=document;whiteSpace=wrap;html=1;boundedLbl=1;fillColor=#ffff88;strokeColor=#0000FF;" parent="ttmQ-iRGi5GbIsY0zkrh-23" vertex="1">
          <mxGeometry y="20" width="100" height="70" as="geometry" />
        </mxCell>
      </root>
    </mxGraphModel>
  </diagram>
</mxfile>
